<svg class="marks" width="798" height="402" viewBox="0 0 798 402" version="1.1" xmlns="http://www.w3.org/2000/svg" xmlns:xlink="http://www.w3.org/1999/xlink"><g transform="translate(192,26)"><g class="mark-group role-frame root"><g transform="translate(0,0)"><path class="background" d="M0.5,0.5h600v350h-600Z" style="fill: none; stroke: #ddd;"></path><g><g class="mark-group role-axis"><g transform="translate(0.5,350.5)"><path class="background" d="M0,0h0v0h0Z" style="pointer-events: none; fill: none;"></path><g><g class="mark-rule role-axis-grid" style="pointer-events: none;"><line transform="translate(0,0)" x2="0" y2="-350" style="fill: none; stroke: #ddd; stroke-width: 1; opacity: 1;"></line><line transform="translate(30,0)" x2="0" y2="-350" style="fill: none; stroke: #ddd; stroke-width: 1; opacity: 1;"></line><line transform="translate(60,0)" x2="0" y2="-350" style="fill: none; stroke: #ddd; stroke-width: 1; opacity: 1;"></line><line transform="translate(90,0)" x2="0" y2="-350" style="fill: none; stroke: #ddd; stroke-width: 1; opacity: 1;"></line><line transform="translate(120,0)" x2="0" y2="-350" style="fill: none; stroke: #ddd; stroke-width: 1; opacity: 1;"></line><line transform="translate(150,0)" x2="0" y2="-350" style="fill: none; stroke: #ddd; stroke-width: 1; opacity: 1;"></line><line transform="translate(180,0)" x2="0" y2="-350" style="fill: none; stroke: #ddd; stroke-width: 1; opacity: 1;"></line><line transform="translate(210,0)" x2="0" y2="-350" style="fill: none; stroke: #ddd; stroke-width: 1; opacity: 1;"></line><line transform="translate(240,0)" x2="0" y2="-350" style="fill: none; stroke: #ddd; stroke-width: 1; opacity: 1;"></line><line transform="translate(270,0)" x2="0" y2="-350" style="fill: none; stroke: #ddd; stroke-width: 1; opacity: 1;"></line><line transform="translate(300,0)" x2="0" y2="-350" style="fill: none; stroke: #ddd; stroke-width: 1; opacity: 1;"></line><line transform="translate(330,0)" x2="0" y2="-350" style="fill: none; stroke: #ddd; stroke-width: 1; opacity: 1;"></line><line transform="translate(360,0)" x2="0" y2="-350" style="fill: none; stroke: #ddd; stroke-width: 1; opacity: 1;"></line><line transform="translate(390,0)" x2="0" y2="-350" style="fill: none; stroke: #ddd; stroke-width: 1; opacity: 1;"></line><line transform="translate(420,0)" x2="0" y2="-350" style="fill: none; stroke: #ddd; stroke-width: 1; opacity: 1;"></line><line transform="translate(450,0)" x2="0" y2="-350" style="fill: none; stroke: #ddd; stroke-width: 1; opacity: 1;"></line><line transform="translate(480,0)" x2="0" y2="-350" style="fill: none; stroke: #ddd; stroke-width: 1; opacity: 1;"></line><line transform="translate(510,0)" x2="0" y2="-350" style="fill: none; stroke: #ddd; stroke-width: 1; opacity: 1;"></line><line transform="translate(540,0)" x2="0" y2="-350" style="fill: none; stroke: #ddd; stroke-width: 1; opacity: 1;"></line><line transform="translate(570,0)" x2="0" y2="-350" style="fill: none; stroke: #ddd; stroke-width: 1; opacity: 1;"></line><line transform="translate(600,0)" x2="0" y2="-350" style="fill: none; stroke: #ddd; stroke-width: 1; opacity: 1;"></line></g></g></g></g><g class="mark-rect role-mark layer_0_marks"><path d="M0,330.4411764705883h232.0573432972396v18.529411764705884h-232.0573432972396Z" style="fill: #303030;"></path><path d="M0,309.8529411764706h232.88089065121247v18.529411764705884h-232.88089065121247Z" style="fill: #303030;"></path><path d="M0,289.2647058823529h265.63977428702157v18.529411764705884h-265.63977428702157Z" style="fill: #303030;"></path><path d="M0,268.67647058823536h270.58105841085865v18.529411764705884h-270.58105841085865Z" style="fill: #303030;"></path><path d="M0,248.08823529411765h300.503278938539v18.529411764705884h-300.503278938539Z" style="fill: #303030;"></path><path d="M0,227.50000000000003h319.07884703370445v18.529411764705884h-319.07884703370445Z" style="fill: #303030;"></path><path d="M0,206.91176470588238h325.66722586548724v18.529411764705884h-325.66722586548724Z" style="fill: #303030;"></path><path d="M0,186.32352941176472h325.94174165014493v18.529411764705884h-325.94174165014493Z" style="fill: #303030;"></path><path d="M0,165.73529411764707h327.31432057343295v18.529411764705884h-327.31432057343295Z" style="fill: #303030;"></path><path d="M0,145.14705882352942h339.5760256214732v18.529411764705884h-339.5760256214732Z" style="fill: #303030;"></path><path d="M0,124.55882352941177h342.7787097758121v18.529411764705884h-342.7787097758121Z" style="fill: #303030;"></path><path d="M0,103.97058823529413h363.6419094097911v18.529411764705884h-363.6419094097911Z" style="fill: #303030;"></path><path d="M0,83.38235294117648h403.9957297544609v18.529411764705884h-403.9957297544609Z" style="fill: #303030;"></path><path d="M0,62.794117647058826h418.1790452951045v18.529411764705884h-418.1790452951045Z" style="fill: #303030;"></path><path d="M0,42.20588235294118h426.41451883483296v18.529411764705884h-426.41451883483296Z" style="fill: #303030;"></path><path d="M0,21.617647058823533h445.63062376086623v18.529411764705884h-445.63062376086623Z" style="fill: #303030;"></path><path d="M0,1.029411764705884h480.21961262772606v18.529411764705884h-480.21961262772606Z" style="fill: #303030;"></path></g><g class="mark-rule role-mark layer_1_marks"><line transform="translate(300,350)" x2="0" y2="-350" style="fill: none; stroke: orange;"></line><line transform="translate(300,350)" x2="0" y2="-350" style="fill: none; stroke: orange;"></line><line transform="translate(300,350)" x2="0" y2="-350" style="fill: none; stroke: orange;"></line><line transform="translate(300,350)" x2="0" y2="-350" style="fill: none; stroke: orange;"></line><line transform="translate(300,350)" x2="0" y2="-350" style="fill: none; stroke: orange;"></line><line transform="translate(300,350)" x2="0" y2="-350" style="fill: none; stroke: orange;"></line><line transform="translate(300,350)" x2="0" y2="-350" style="fill: none; stroke: orange;"></line><line transform="translate(300,350)" x2="0" y2="-350" style="fill: none; stroke: orange;"></line><line transform="translate(300,350)" x2="0" y2="-350" style="fill: none; stroke: orange;"></line><line transform="translate(300,350)" x2="0" y2="-350" style="fill: none; stroke: orange;"></line><line transform="translate(300,350)" x2="0" y2="-350" style="fill: none; stroke: orange;"></line><line transform="translate(300,350)" x2="0" y2="-350" style="fill: none; stroke: orange;"></line><line transform="translate(300,350)" x2="0" y2="-350" style="fill: none; stroke: orange;"></line><line transform="translate(300,350)" x2="0" y2="-350" style="fill: none; stroke: orange;"></line><line transform="translate(300,350)" x2="0" y2="-350" style="fill: none; stroke: orange;"></line><line transform="translate(300,350)" x2="0" y2="-350" style="fill: none; stroke: orange;"></line><line transform="translate(300,350)" x2="0" y2="-350" style="fill: none; stroke: orange;"></line></g><g class="mark-group role-title"><g transform="translate(300,-21)"><path class="background" d="M0,0h0v0h0Z" style="pointer-events: none; fill: none;"></path><g><g class="mark-text role-title-text" style="pointer-events: none;"><text text-anchor="middle" transform="translate(0,13)" style="font-family: Times New Roman; font-size: 16px; font-weight: normal; fill: #000; opacity: 1;">How often in a game the team with more points has more of each stat (2015-2019)</text></g></g></g></g><g class="mark-group role-axis"><g transform="translate(0.5,350.5)"><path class="background" d="M0,0h0v0h0Z" style="pointer-events: none; fill: none;"></path><g><g class="mark-rule role-axis-tick" style="pointer-events: none;"><line transform="translate(0,0)" x2="0" y2="5" style="fill: none; stroke: #888; stroke-width: 1; opacity: 1;"></line><line transform="translate(30,0)" x2="0" y2="5" style="fill: none; stroke: #888; stroke-width: 1; opacity: 1;"></line><line transform="translate(60,0)" x2="0" y2="5" style="fill: none; stroke: #888; stroke-width: 1; opacity: 1;"></line><line transform="translate(90,0)" x2="0" y2="5" style="fill: none; stroke: #888; stroke-width: 1; opacity: 1;"></line><line transform="translate(120,0)" x2="0" y2="5" style="fill: none; stroke: #888; stroke-width: 1; opacity: 1;"></line><line transform="translate(150,0)" x2="0" y2="5" style="fill: none; stroke: #888; stroke-width: 1; opacity: 1;"></line><line transform="translate(180,0)" x2="0" y2="5" style="fill: none; stroke: #888; stroke-width: 1; opacity: 1;"></line><line transform="translate(210,0)" x2="0" y2="5" style="fill: none; stroke: #888; stroke-width: 1; opacity: 1;"></line><line transform="translate(240,0)" x2="0" y2="5" style="fill: none; stroke: #888; stroke-width: 1; opacity: 1;"></line><line transform="translate(270,0)" x2="0" y2="5" style="fill: none; stroke: #888; stroke-width: 1; opacity: 1;"></line><line transform="translate(300,0)" x2="0" y2="5" style="fill: none; stroke: #888; stroke-width: 1; opacity: 1;"></line><line transform="translate(330,0)" x2="0" y2="5" style="fill: none; stroke: #888; stroke-width: 1; opacity: 1;"></line><line transform="translate(360,0)" x2="0" y2="5" style="fill: none; stroke: #888; stroke-width: 1; opacity: 1;"></line><line transform="translate(390,0)" x2="0" y2="5" style="fill: none; stroke: #888; stroke-width: 1; opacity: 1;"></line><line transform="translate(420,0)" x2="0" y2="5" style="fill: none; stroke: #888; stroke-width: 1; opacity: 1;"></line><line transform="translate(450,0)" x2="0" y2="5" style="fill: none; stroke: #888; stroke-width: 1; opacity: 1;"></line><line transform="translate(480,0)" x2="0" y2="5" style="fill: none; stroke: #888; stroke-width: 1; opacity: 1;"></line><line transform="translate(510,0)" x2="0" y2="5" style="fill: none; stroke: #888; stroke-width: 1; opacity: 1;"></line><line transform="translate(540,0)" x2="0" y2="5" style="fill: none; stroke: #888; stroke-width: 1; opacity: 1;"></line><line transform="translate(570,0)" x2="0" y2="5" style="fill: none; stroke: #888; stroke-width: 1; opacity: 1;"></line><line transform="translate(600,0)" x2="0" y2="5" style="fill: none; stroke: #888; stroke-width: 1; opacity: 1;"></line></g><g class="mark-text role-axis-label" style="pointer-events: none;"><text text-anchor="start" transform="translate(0,18)" style="font-family: Times New Roman; font-size: 14px; fill: #000; opacity: 1;">0%</text><text text-anchor="middle" transform="translate(30,18)" style="font-family: Times New Roman; font-size: 14px; fill: #000; opacity: 0;">5%</text><text text-anchor="middle" transform="translate(60,18)" style="font-family: Times New Roman; font-size: 14px; fill: #000; opacity: 1;">10%</text><text text-anchor="middle" transform="translate(90,18)" style="font-family: Times New Roman; font-size: 14px; fill: #000; opacity: 0;">15%</text><text text-anchor="middle" transform="translate(120,18)" style="font-family: Times New Roman; font-size: 14px; fill: #000; opacity: 1;">20%</text><text text-anchor="middle" transform="translate(150,18)" style="font-family: Times New Roman; font-size: 14px; fill: #000; opacity: 0;">25%</text><text text-anchor="middle" transform="translate(180,18)" style="font-family: Times New Roman; font-size: 14px; fill: #000; opacity: 1;">30%</text><text text-anchor="middle" transform="translate(210,18)" style="font-family: Times New Roman; font-size: 14px; fill: #000; opacity: 0;">35%</text><text text-anchor="middle" transform="translate(240,18)" style="font-family: Times New Roman; font-size: 14px; fill: #000; opacity: 1;">40%</text><text text-anchor="middle" transform="translate(270,18)" style="font-family: Times New Roman; font-size: 14px; fill: #000; opacity: 0;">45%</text><text text-anchor="middle" transform="translate(300,18)" style="font-family: Times New Roman; font-size: 14px; fill: #000; opacity: 1;">50%</text><text text-anchor="middle" transform="translate(330,18)" style="font-family: Times New Roman; font-size: 14px; fill: #000; opacity: 0;">55%</text><text text-anchor="middle" transform="translate(360,18)" style="font-family: Times New Roman; font-size: 14px; fill: #000; opacity: 1;">60%</text><text text-anchor="middle" transform="translate(390,18)" style="font-family: Times New Roman; font-size: 14px; fill: #000; opacity: 0;">65%</text><text text-anchor="middle" transform="translate(420,18)" style="font-family: Times New Roman; font-size: 14px; fill: #000; opacity: 1;">70%</text><text text-anchor="middle" transform="translate(450,18)" style="font-family: Times New Roman; font-size: 14px; fill: #000; opacity: 0;">75%</text><text text-anchor="middle" transform="translate(480,18)" style="font-family: Times New Roman; font-size: 14px; fill: #000; opacity: 1;">80%</text><text text-anchor="middle" transform="translate(510,18)" style="font-family: Times New Roman; font-size: 14px; fill: #000; opacity: 0;">85%</text><text text-anchor="middle" transform="translate(540,18)" style="font-family: Times New Roman; font-size: 14px; fill: #000; opacity: 1;">90%</text><text text-anchor="middle" transform="translate(570,18)" style="font-family: Times New Roman; font-size: 14px; fill: #000; opacity: 0;">95%</text><text text-anchor="end" transform="translate(600,18)" style="font-family: Times New Roman; font-size: 14px; fill: #000; opacity: 1;">100%</text></g><g class="mark-rule role-axis-domain" style="pointer-events: none;"><line transform="translate(0,0)" x2="600" y2="0" style="fill: none; stroke: #888; stroke-width: 1; opacity: 1;"></line></g></g></g></g><g class="mark-group role-axis"><g transform="translate(0.5,0.5)"><path class="background" d="M0,0h0v0h0Z" style="pointer-events: none; fill: none;"></path><g><g class="mark-rule role-axis-tick" style="pointer-events: none;"><line transform="translate(0,9)" x2="-5" y2="0" style="fill: none; stroke: #888; stroke-width: 1; opacity: 1;"></line><line transform="translate(0,30)" x2="-5" y2="0" style="fill: none; stroke: #888; stroke-width: 1; opacity: 1;"></line><line transform="translate(0,50)" x2="-5" y2="0" style="fill: none; stroke: #888; stroke-width: 1; opacity: 1;"></line><line transform="translate(0,71)" x2="-5" y2="0" style="fill: none; stroke: #888; stroke-width: 1; opacity: 1;"></line><line transform="translate(0,92)" x2="-5" y2="0" style="fill: none; stroke: #888; stroke-width: 1; opacity: 1;"></line><line transform="translate(0,112)" x2="-5" y2="0" style="fill: none; stroke: #888; stroke-width: 1; opacity: 1;"></line><line transform="translate(0,133)" x2="-5" y2="0" style="fill: none; stroke: #888; stroke-width: 1; opacity: 1;"></line><line transform="translate(0,153)" x2="-5" y2="0" style="fill: none; stroke: #888; stroke-width: 1; opacity: 1;"></line><line transform="translate(0,174)" x2="-5" y2="0" style="fill: none; stroke: #888; stroke-width: 1; opacity: 1;"></line><line transform="translate(0,195)" x2="-5" y2="0" style="fill: none; stroke: #888; stroke-width: 1; opacity: 1;"></line><line transform="translate(0,215)" x2="-5" y2="0" style="fill: none; stroke: #888; stroke-width: 1; opacity: 1;"></line><line transform="translate(0,236)" x2="-5" y2="0" style="fill: none; stroke: #888; stroke-width: 1; opacity: 1;"></line><line transform="translate(0,256)" x2="-5" y2="0" style="fill: none; stroke: #888; stroke-width: 1; opacity: 1;"></line><line transform="translate(0,277)" x2="-5" y2="0" style="fill: none; stroke: #888; stroke-width: 1; opacity: 1;"></line><line transform="translate(0,298)" x2="-5" y2="0" style="fill: none; stroke: #888; stroke-width: 1; opacity: 1;"></line><line transform="translate(0,318)" x2="-5" y2="0" style="fill: none; stroke: #888; stroke-width: 1; opacity: 1;"></line><line transform="translate(0,339)" x2="-5" y2="0" style="fill: none; stroke: #888; stroke-width: 1; opacity: 1;"></line></g><g class="mark-text role-axis-label" style="pointer-events: none;"><text text-anchor="end" transform="translate(-7,13.294117647058826)" style="font-family: Times New Roman; font-size: 14px; fill: #000; opacity: 1;">field_goal_pct</text><text text-anchor="end" transform="translate(-7,33.88235294117648)" style="font-family: Times New Roman; font-size: 14px; fill: #000; opacity: 1;">made_field_goals</text><text text-anchor="end" transform="translate(-7,54.47058823529412)" style="font-family: Times New Roman; font-size: 14px; fill: #000; opacity: 1;">defensive_rebounds</text><text text-anchor="end" transform="translate(-7,75.05882352941177)" style="font-family: Times New Roman; font-size: 14px; fill: #000; opacity: 1;">three_point_pct</text><text text-anchor="end" transform="translate(-7,95.64705882352942)" style="font-family: Times New Roman; font-size: 14px; fill: #000; opacity: 1;">assists</text><text text-anchor="end" transform="translate(-7,116.23529411764707)" style="font-family: Times New Roman; font-size: 14px; fill: #000; opacity: 1;">made_three_point_field_goals</text><text text-anchor="end" transform="translate(-7,136.8235294117647)" style="font-family: Times New Roman; font-size: 14px; fill: #000; opacity: 1;">assists_per_fg</text><text text-anchor="end" transform="translate(-7,157.41176470588238)" style="font-family: Times New Roman; font-size: 14px; fill: #000; opacity: 1;">made_free_throws</text><text text-anchor="end" transform="translate(-7,178)" style="font-family: Times New Roman; font-size: 14px; fill: #000; opacity: 1;">free_throw_pct</text><text text-anchor="end" transform="translate(-7,198.58823529411768)" style="font-family: Times New Roman; font-size: 14px; fill: #000; opacity: 1;">blocks</text><text text-anchor="end" transform="translate(-7,219.1764705882353)" style="font-family: Times New Roman; font-size: 14px; fill: #000; opacity: 1;">attempted_free_throws</text><text text-anchor="end" transform="translate(-7,239.76470588235298)" style="font-family: Times New Roman; font-size: 14px; fill: #000; opacity: 1;">steals</text><text text-anchor="end" transform="translate(-7,260.3529411764706)" style="font-family: Times New Roman; font-size: 14px; fill: #000; opacity: 1;">attempted_three_point_field_…</text><text text-anchor="end" transform="translate(-7,280.9411764705883)" style="font-family: Times New Roman; font-size: 14px; fill: #000; opacity: 1;">attempted_field_goals</text><text text-anchor="end" transform="translate(-7,301.52941176470586)" style="font-family: Times New Roman; font-size: 14px; fill: #000; opacity: 1;">offensive_rebounds</text><text text-anchor="end" transform="translate(-7,322.11764705882354)" style="font-family: Times New Roman; font-size: 14px; fill: #000; opacity: 1;">turnovers</text><text text-anchor="end" transform="translate(-7,342.7058823529412)" style="font-family: Times New Roman; font-size: 14px; fill: #000; opacity: 1;">personal_fouls</text></g><g class="mark-rule role-axis-domain" style="pointer-events: none;"><line transform="translate(0,0)" x2="0" y2="350" style="fill: none; stroke: #888; stroke-width: 1; opacity: 1;"></line></g></g></g></g></g></g></g></g></svg>